<svg xmlns="http://www.w3.org/2000/svg" viewBox="0 0 180 180">
  <rect width="180" height="180" rx="36" fill="#f4f2ec"/>
  <path d="M64 80 C64 52 75 28 90 14 C105 28 116 52 116 80 C106 70 100 74 90 74 C80 74 74 70 64 80 Z" fill="#3a72b8"/>
  <path d="M79 74 C79 56 84 40 90 30 C96 40 101 56 101 74 C96 68 93 71 90 71 C87 71 84 68 79 74 Z" fill="#7aa3d6"/>
  <circle cx="90" cy="115" r="55" fill="#1f1f22"/>
  <circle cx="90" cy="115" r="42" fill="none" stroke="#3a3a42" stroke-width="1.2"/>
  <circle cx="90" cy="115" r="31" fill="none" stroke="#3a3a42" stroke-width="1.2"/>
  <circle cx="90" cy="115" r="20" fill="#f4f2ec"/>
  <circle cx="90" cy="115" r="7" fill="#1f1f22"/>
  <path d="M48 105 Q60 95 72 92" stroke="#3a72b8" stroke-width="3.5" fill="none" stroke-linecap="round" opacity="0.75"/>
</svg>
